<svg xmlns="http://www.w3.org/2000/svg" viewBox="14.541915893554688 176.36728128823017 545.9161376953125 222.2654526823286"> <svg xmlns="http://www.w3.org/2000/svg" xmlns:xlink="http://www.w3.org/1999/xlink" version="1.1" id="Layer_1" x="84.54191589355469" y="246.36728128823017" viewBox="14.800000190734863 116.19999694824219 970.4000244140625 767.5999755859375" xml:space="preserve" height="82.26545268232863" width="104" preserveAspectRatio="xMinYMin" enable-background="new 0 0 1000 1000" style="overflow: visible;"><polygon class="st0" points="985.2,310.7 14.8,883.8 14.8,883.8 985.2,116.2   " style="fill: #141F3E; fill-opacity: 1;"></polygon><polygon class="st0" points="343.4,883.8 274.8,883.8 274.8,706.4 343.4,649.2   " style="fill: #141F3E; fill-opacity: 1;"></polygon><polygon class="st0" points="459.8,582.5 459.8,883.8 549.4,883.8 549.4,513.8   " style="fill: #141F3E; fill-opacity: 1;"></polygon><polygon class="st0" points="679.1,439.4 679.1,883.8 814.5,883.8 814.5,319.3   " style="fill: #141F3E; fill-opacity: 1;"></polygon></svg> <svg x="215.0480499267578" y="304.00048828125" viewBox="1.4900000095367432 3.9000000953674316 155.75999450683594 12.979999542236328" height="12.979999542236328" width="155.75999450683594" style="overflow: visible;"><g fill="#141F3E" fill-opacity="1" style=""><path d="M8.54 9.67L8.54 11.05L3.17 11.05L3.17 16.70L1.49 16.70L1.49 3.90L9.41 3.90L9.41 5.29L3.17 5.29L3.17 9.67L8.54 9.67ZM18.75 3.90L20.44 3.90L20.44 12.60Q20.43 14.41 19.31 15.57Q18.18 16.72 16.24 16.86L16.24 16.86L15.79 16.88Q13.69 16.88 12.45 15.74Q11.20 14.61 11.18 12.62L11.18 12.62L11.18 3.90L12.85 3.90L12.85 12.57Q12.85 13.96 13.61 14.73Q14.38 15.50 15.79 15.50L15.79 15.50Q17.23 15.50 17.99 14.73Q18.75 13.97 18.75 12.58L18.75 12.58L18.75 3.90ZM32.94 3.90L32.94 16.70L31.25 16.70L24.80 6.84L24.80 16.70L23.11 16.70L23.11 3.90L24.80 3.90L31.26 13.81L31.26 3.90L32.94 3.90ZM39.48 16.70L35.94 16.70L35.94 3.90L39.55 3.90Q41.22 3.90 42.50 4.64Q43.79 5.38 44.49 6.74Q45.18 8.10 45.19 9.87L45.19 9.87L45.19 10.69Q45.19 12.50 44.49 13.86Q43.80 15.22 42.50 15.95Q41.20 16.68 39.48 16.70L39.48 16.70ZM39.59 5.29L37.63 5.29L37.63 15.32L39.40 15.32Q41.35 15.32 42.44 14.11Q43.52 12.89 43.52 10.65L43.52 10.65L43.52 9.91Q43.52 7.73 42.50 6.52Q41.48 5.31 39.59 5.29L39.59 5.29ZM60.69 3.90L60.69 5.29L56.58 5.29L56.58 16.70L54.90 16.70L54.90 5.29L50.79 5.29L50.79 3.90L60.69 3.90ZM72.42 3.90L72.42 16.70L70.73 16.70L70.73 10.78L64.27 10.78L64.27 16.70L62.59 16.70L62.59 3.90L64.27 3.90L64.27 9.40L70.73 9.40L70.73 3.90L72.42 3.90ZM82.65 9.40L82.65 10.78L77.11 10.78L77.11 15.32L83.55 15.32L83.55 16.70L75.42 16.70L75.42 3.90L83.46 3.90L83.46 5.29L77.11 5.29L77.11 9.40L82.65 9.40ZM97.16 9.67L97.16 11.05L91.79 11.05L91.79 16.70L90.11 16.70L90.11 3.90L98.03 3.90L98.03 5.29L91.79 5.29L91.79 9.67L97.16 9.67ZM107.37 3.90L109.06 3.90L109.06 12.60Q109.05 14.41 107.93 15.57Q106.80 16.72 104.86 16.86L104.86 16.86L104.41 16.88Q102.31 16.88 101.07 15.74Q99.82 14.61 99.80 12.62L99.80 12.62L99.80 3.90L101.47 3.90L101.47 12.57Q101.47 13.96 102.23 14.73Q103.00 15.50 104.41 15.50L104.41 15.50Q105.85 15.50 106.61 14.73Q107.37 13.97 107.37 12.58L107.37 12.58L107.37 3.90ZM120.57 3.90L120.57 5.29L116.46 5.29L116.46 16.70L114.78 16.70L114.78 5.29L110.67 5.29L110.67 3.90L120.57 3.90ZM129.78 3.90L131.48 3.90L131.48 12.60Q131.47 14.41 130.34 15.57Q129.21 16.72 127.27 16.86L127.27 16.86L126.83 16.88Q124.73 16.88 123.48 15.74Q122.23 14.61 122.21 12.62L122.21 12.62L122.21 3.90L123.88 3.90L123.88 12.57Q123.88 13.96 124.65 14.73Q125.41 15.50 126.83 15.50L126.83 15.50Q128.26 15.50 129.02 14.73Q129.78 13.97 129.78 12.58L129.78 12.58L129.78 3.90ZM141.61 16.70L138.83 11.52L135.83 11.52L135.83 16.70L134.13 16.70L134.13 3.90L138.37 3.90Q140.53 3.90 141.69 4.89Q142.86 5.87 142.86 7.75L142.86 7.75Q142.86 8.95 142.21 9.83Q141.57 10.72 140.41 11.16L140.41 11.16L143.42 16.59L143.42 16.70L141.61 16.70ZM135.83 5.29L135.83 10.14L138.42 10.14Q139.68 10.14 140.42 9.49Q141.16 8.84 141.16 7.75L141.16 7.75Q141.16 6.57 140.45 5.93Q139.75 5.30 138.41 5.29L138.41 5.29L135.83 5.29ZM152.46 9.40L152.46 10.78L146.91 10.78L146.91 15.32L153.35 15.32L153.35 16.70L145.22 16.70L145.22 3.90L153.26 3.90L153.26 5.29L146.91 5.29L146.91 9.40L152.46 9.40ZM155.23 15.85L155.23 15.85Q155.23 15.42 155.48 15.14Q155.73 14.86 156.23 14.86Q156.74 14.86 156.99 15.14Q157.25 15.42 157.25 15.85L157.25 15.85Q157.25 16.25 156.99 16.52Q156.74 16.80 156.23 16.80Q155.73 16.80 155.48 16.52Q155.23 16.25 155.23 15.85Z" transform="translate(0, 0)"></path></g></svg> <svg x="215.0480499267578" y="268.00048828125" viewBox="2.2899999618530273 7.449999809265137 275.4100036621094 26.299999237060547" height="26.299999237060547" width="275.4100036621094" style="overflow: visible;"><g fill="#141F3E" fill-opacity="1" style=""><path d="M12.23 33.40L2.29 33.40L2.29 7.80L11.25 7.80Q15.91 7.80 18.32 9.59Q20.72 11.37 20.72 14.82L20.72 14.82Q20.72 16.70 19.76 18.13Q18.79 19.56 17.07 20.23L17.07 20.23Q19.04 20.72 20.17 22.22Q21.30 23.71 21.30 25.88L21.30 25.88Q21.30 29.57 18.95 31.46Q16.59 33.36 12.23 33.40L12.23 33.40ZM12.39 22.25L7.56 22.25L7.56 29.16L12.08 29.16Q13.94 29.16 14.99 28.27Q16.03 27.39 16.03 25.82L16.03 25.82Q16.03 22.31 12.39 22.25L12.39 22.25ZM7.56 12.08L7.56 18.53L11.46 18.53Q15.45 18.46 15.45 15.35L15.45 15.35Q15.45 13.61 14.44 12.84Q13.43 12.08 11.25 12.08L11.25 12.08L7.56 12.08ZM39.53 33.40L34.73 24.03L30.53 24.03L30.53 33.40L25.26 33.40L25.26 7.80L34.77 7.80Q39.30 7.80 41.77 9.83Q44.23 11.85 44.23 15.54L44.23 15.54Q44.23 18.16 43.09 19.91Q41.96 21.66 39.66 22.69L39.66 22.69L45.19 33.15L45.19 33.40L39.53 33.40ZM30.53 12.08L30.53 19.76L34.79 19.76Q36.77 19.76 37.86 18.75Q38.95 17.74 38.95 15.96L38.95 15.96Q38.95 14.15 37.92 13.11Q36.90 12.08 34.77 12.08L34.77 12.08L30.53 12.08ZM53.84 7.80L53.84 33.40L48.57 33.40L48.57 7.80L53.84 7.80ZM66.66 33.40L58.73 33.40L58.73 7.80L66.60 7.80Q69.98 7.80 72.64 9.33Q75.30 10.85 76.80 13.65Q78.29 16.45 78.29 20.02L78.29 20.02L78.29 21.20Q78.29 24.77 76.83 27.54Q75.36 30.32 72.69 31.85Q70.01 33.38 66.66 33.40L66.66 33.40ZM66.60 12.08L64.00 12.08L64.00 29.16L66.55 29.16Q69.64 29.16 71.28 27.14Q72.91 25.12 72.95 21.36L72.95 21.36L72.95 20.00Q72.95 16.10 71.33 14.09Q69.71 12.08 66.60 12.08L66.60 12.08ZM102.38 19.95L102.38 30.16Q100.95 31.87 98.35 32.81Q95.75 33.75 92.58 33.75L92.58 33.75Q89.26 33.75 86.76 32.30Q84.25 30.85 82.89 28.09Q81.53 25.33 81.49 21.60L81.49 21.60L81.49 19.86Q81.49 16.03 82.78 13.23Q84.08 10.42 86.51 8.94Q88.95 7.45 92.21 7.45L92.21 7.45Q96.77 7.45 99.33 9.62Q101.90 11.79 102.38 15.94L102.38 15.94L97.24 15.94Q96.89 13.75 95.69 12.73Q94.48 11.71 92.37 11.71L92.37 11.71Q89.68 11.71 88.28 13.73Q86.87 15.75 86.85 19.74L86.85 19.74L86.85 21.38Q86.85 25.40 88.38 27.46Q89.91 29.51 92.87 29.51L92.87 29.51Q95.84 29.51 97.10 28.25L97.10 28.25L97.10 23.84L92.30 23.84L92.30 19.95L102.38 19.95ZM122.04 18.18L122.04 22.31L111.92 22.31L111.92 29.16L123.80 29.16L123.80 33.40L106.65 33.40L106.65 7.80L123.77 7.80L123.77 12.08L111.92 12.08L111.92 18.18L122.04 18.18ZM150.68 24.87L155.95 24.87Q155.65 29.00 152.90 31.38Q150.15 33.75 145.65 33.75L145.65 33.75Q140.73 33.75 137.91 30.44Q135.09 27.12 135.09 21.34L135.09 21.34L135.09 19.78Q135.09 16.08 136.39 13.27Q137.69 10.46 140.11 8.96Q142.52 7.45 145.72 7.45L145.72 7.45Q150.15 7.45 152.86 9.83Q155.57 12.20 155.99 16.49L155.99 16.49L150.71 16.49Q150.52 14.01 149.33 12.89Q148.15 11.78 145.72 11.78L145.72 11.78Q143.09 11.78 141.78 13.67Q140.47 15.56 140.43 19.53L140.43 19.53L140.43 21.46Q140.43 25.61 141.69 27.53Q142.95 29.44 145.65 29.44L145.65 29.44Q148.10 29.44 149.30 28.33Q150.50 27.21 150.68 24.87L150.68 24.87ZM175.64 33.40L173.87 28.13L164.62 28.13L162.86 33.40L157.25 33.40L166.78 7.80L171.67 7.80L181.25 33.40L175.64 33.40ZM169.22 14.27L166.04 23.85L172.44 23.85L169.22 14.27ZM193.54 24.38L188.91 24.38L188.91 33.40L183.64 33.40L183.64 7.80L193.62 7.80Q196.51 7.80 198.69 8.86Q200.88 9.91 202.06 11.86Q203.24 13.80 203.24 16.28L203.24 16.28Q203.24 20.04 200.66 22.21Q198.09 24.38 193.54 24.38L193.54 24.38ZM188.91 12.08L188.91 20.11L193.62 20.11Q195.71 20.11 196.81 19.13Q197.91 18.14 197.91 16.31L197.91 16.31Q197.91 14.43 196.80 13.27Q195.70 12.11 193.75 12.08L193.75 12.08L188.91 12.08ZM212.47 7.80L212.47 33.40L207.19 33.40L207.19 7.80L212.47 7.80ZM236.11 7.80L236.11 12.08L228.27 12.08L228.27 33.40L223.00 33.40L223.00 12.08L215.26 12.08L215.26 7.80L236.11 7.80ZM253.23 33.40L251.46 28.13L242.21 28.13L240.45 33.40L234.84 33.40L244.37 7.80L249.26 7.80L258.84 33.40L253.23 33.40ZM246.81 14.27L243.63 23.85L250.03 23.85L246.81 14.27ZM266.50 7.80L266.50 29.16L277.70 29.16L277.70 33.40L261.23 33.40L261.23 7.80L266.50 7.80Z" transform="translate(0, 0)"></path></g></svg></svg>